<svg width="92" height="92" viewBox="0 0 92 92" fill="none" xmlns="http://www.w3.org/2000/svg">
<path d="M20 80.5C21.6569 80.5 23 79.1569 23 77.5L23 60.5C23 58.8431 21.6569 57.5 20 57.5L14.5 57.5C12.8431 57.5 11.5 58.8431 11.5 60.5L11.5 66C11.5 67.6569 10.1569 69 8.5 69L3 69C1.34314 69 -1.06407e-06 67.6569 -1.13649e-06 66L-1.87959e-06 49C-1.95201e-06 47.3431 1.34314 46 3 46L8.5 46C10.1569 46 11.5 44.6569 11.5 43L11.5 14.5C11.5 12.8431 10.1569 11.5 8.5 11.5L3 11.5C1.34314 11.5 -3.57748e-06 10.1569 -3.6499e-06 8.5L-3.89031e-06 3C-3.96274e-06 1.34315 1.34314 -5.87108e-08 3 -1.31134e-07L43 -1.87959e-06C44.6569 -1.95201e-06 46 1.34315 46 3L46 8.5C46 10.1569 47.3431 11.5 49 11.5L57.5 11.5L57.5 20C57.5 21.6569 56.1568 23 54.5 23L49 23C47.3431 23 46 24.3431 46 26L46 54.5C46 56.1569 44.6569 57.5 43 57.5L37.5 57.5C35.8431 57.5 34.5 58.8431 34.5 60.5L34.5 66C34.5 67.6569 35.8431 69 37.5 69L57.5 69L57.5 77.5C57.5 79.1569 58.8431 80.5 60.5 80.5L66 80.5C67.6569 80.5 69 79.1569 69 77.5L69 72C69 70.3431 67.6569 69 66 69L57.5 69L57.5 60.5C57.5 58.8431 58.8431 57.5 60.5 57.5L66 57.5C67.6569 57.5 69 56.1568 69 54.5L69 49C69 47.3431 67.6569 46 66 46L60.5 46C58.8431 46 57.5 44.6569 57.5 43L57.5 37.5C57.5 35.8431 58.8431 34.5 60.5 34.5L66 34.5C67.6569 34.5 69 33.1568 69 31.5L69 26C69 24.3431 70.3431 23 72 23L77.5 23C79.1568 23 80.5 21.6568 80.5 20L80.5 14.5C80.5 12.8431 79.1568 11.5 77.5 11.5L57.5 11.5L57.5 3C57.5 1.34314 58.8431 -2.57212e-06 60.5 -2.64454e-06L89 -3.89031e-06C90.6568 -3.96274e-06 92 1.34314 92 3L92 43C92 44.6569 90.6569 46 89 46L83.5 46C81.8431 46 80.5 47.3431 80.5 49L80.5 54.5C80.5 56.1568 81.8431 57.5 83.5 57.5L89 57.5C90.6569 57.5 92 58.8431 92 60.5L92 77.5C92 79.1568 90.6569 80.5 89 80.5L83.5 80.5C81.8431 80.5 80.5 81.8431 80.5 83.5L80.5 89C80.5 90.6569 79.1569 92 77.5 92L49 92C47.3431 92 46 90.6569 46 89L46 83.5C46 81.8431 44.6569 80.5 43 80.5L37.5 80.5C35.8431 80.5 34.5 81.8431 34.5 83.5L34.5 89C34.5 90.6569 33.1569 92 31.5 92L3 92C1.34315 92 -5.87103e-08 90.6569 -1.31133e-07 89L-3.71544e-07 83.5C-4.43967e-07 81.8431 1.34315 80.5 3 80.5L20 80.5ZM31.5 46C33.1569 46 34.5 44.6569 34.5 43L34.5 14.5C34.5 12.8431 33.1568 11.5 31.5 11.5L26 11.5C24.3431 11.5 23 12.8431 23 14.5L23 43C23 44.6569 24.3431 46 26 46L31.5 46Z" fill="#F1F1F7"/>
</svg>
